<svg width="350" height="350" viewBox="0 0 350 350" fill="none" xmlns="http://www.w3.org/2000/svg">
<g clip-path="url(#clip0_2001_7)">
<path d="M172.541 177.854C191.978 161.63 178.252 112.753 141.881 68.6816C105.51 24.6104 60.2679 2.03492 40.8298 18.2578C21.3916 34.4808 35.1184 83.3588 71.4894 127.43C107.86 171.502 153.103 194.077 172.541 177.854Z" fill="#7DC80F"/>
<path d="M282.178 129.469C313.111 92.8022 326.59 53.1853 312.286 40.9822C297.983 28.7789 261.311 48.6106 230.378 85.2773C199.447 121.944 185.966 161.561 200.27 173.764C214.574 185.967 251.245 166.136 282.178 129.469Z" fill="#008D3B"/>
<path d="M147.823 289.807C178.902 252.967 190.926 211.867 174.679 198.007C158.433 184.147 120.069 202.775 88.9899 239.615C57.9112 276.455 45.8871 317.556 62.1333 331.416C78.3797 345.276 116.744 326.647 147.823 289.807Z" fill="#00B837"/>
<path d="M264.165 279.475C277.053 269.893 273.68 243.33 256.633 220.145C239.587 196.961 215.319 185.935 202.431 195.517C189.544 205.1 192.916 231.663 209.964 254.849C227.01 278.033 251.277 289.058 264.165 279.475Z" fill="#009738"/>
</g>
<defs>
<clipPath id="clip0_2001_7">
<rect width="286" height="323" fill="white" transform="translate(32 13)"/>
</clipPath>
</defs>
</svg>
