<svg width="222" height="251" viewBox="0 0 222 251" fill="none" xmlns="http://www.w3.org/2000/svg">
<path d="M109.091 128.106C124.179 115.499 113.524 77.5169 85.2924 43.2696C57.0603 9.02234 21.9422 -8.52085 6.85389 4.08581C-8.23447 16.6925 2.42057 54.6751 30.6526 88.9223C58.8846 123.17 94.0027 140.713 109.091 128.106Z" fill="#7DC80F"/>
<path d="M194.194 90.5067C218.205 62.0134 228.668 31.2275 217.565 21.7446C206.462 12.2616 177.997 27.6726 153.986 56.1659C129.976 84.6593 119.512 115.445 130.615 124.928C141.718 134.411 170.183 119 194.194 90.5067Z" fill="#008D3B"/>
<path d="M89.9047 215.104C114.029 186.476 123.362 154.537 110.751 143.767C98.1407 132.996 68.3612 147.472 44.2371 176.1C20.1131 204.728 10.7797 236.667 23.3904 247.438C36.0012 258.208 65.7807 243.732 89.9047 215.104Z" fill="#00B837"/>
<path d="M180.212 207.075C190.216 199.629 187.598 178.987 174.366 160.97C161.134 142.954 142.297 134.386 132.293 141.832C122.29 149.279 124.907 169.921 138.14 187.938C151.372 205.954 170.208 214.522 180.212 207.075Z" fill="#009738"/>
</svg>
